<svg id="Layer_1" data-name="Layer 1" xmlns="http://www.w3.org/2000/svg" viewBox="0 0 68.87 39"><defs><style>.cls-1{fill:#fff;}.cls-2{fill:#d51820;}</style></defs><title>HPicon-XM-10-YEARS-2019</title><polygon class="cls-1" points="24.06 0.09 24.06 7.54 24.75 7.54 24.75 0.78 68.08 0.78 68.08 30.88 68.08 34.9 68.08 38.23 24.75 38.23 24.75 31.47 24.06 31.47 24.06 38.92 68.87 38.92 68.87 34.9 68.87 30.88 68.87 0.09 24.06 0.09"/><polygon class="cls-2" points="22.39 13.82 28.08 19.51 22.39 25.19 22.39 13.82"/><rect class="cls-2" x="10.92" y="8.72" width="0.98" height="20.59"/><path class="cls-1" d="M35.92,4.94V3.7h2.14V4.94c1.86.38,2.81,1.81,2.81,4.07v.53H38.4v-.7c0-1.19-.48-1.64-1.31-1.64s-1.32.45-1.32,1.64c0,3.44,5.13,3.6,5.13,8.37,0,2.26-1,3.71-2.84,4.1v1.21H35.92V21.31c-1.88-.39-2.84-1.84-2.84-4.1V16.06h2.48v1.31c0,1.2.52,1.62,1.36,1.62s1.36-.42,1.36-1.62c0-3.43-5.13-3.59-5.13-8.36C33.15,6.77,34.08,5.34,35.92,4.94Z"/><path class="cls-1" d="M42.38,6.92a2.6,2.6,0,0,0,2.88-2.09H47V21.51H44.4V8.78h-2Z"/><path class="cls-1" d="M54.31,16.67,56.1,4.83h3.65V21.51H57.27v-12l-1.81,12H53L51,9.71v11.8H48.74V4.83h3.64Z"/><path class="cls-1" d="M36.88,28.07v1.06c0,1.31-.63,2-1.91,2h-.61v3.07H33.08V26.06H35C36.25,26.06,36.88,26.77,36.88,28.07Zm-2.52-.85V30H35c.41,0,.63-.19.63-.77V28c0-.58-.22-.77-.63-.77Z"/><path class="cls-1" d="M40.92,34.22a2.51,2.51,0,0,1-.12-1V31.93c0-.76-.25-1-.84-1h-.44v3.33H38.24V26.06h1.93c1.33,0,1.9.61,1.9,1.87v.64a1.62,1.62,0,0,1-.84,1.66c.64.27.85.89.85,1.74v1.26a2.58,2.58,0,0,0,.14,1Zm-1.4-7v2.51H40c.48,0,.77-.21.77-.86v-.81c0-.58-.2-.84-.65-.84Z"/><path class="cls-1" d="M43.52,28a2,2,0,1,1,3.9,0v4.24a2,2,0,1,1-3.9,0Zm1.28,4.32c0,.58.26.8.67.8s.66-.22.66-.8V27.93c0-.58-.25-.8-.66-.8s-.67.22-.67.8Z"/><path class="cls-1" d="M51.66,31.85l.88-5.79h1.78v8.16H53.11V28.36l-.89,5.86H51l-1-5.77v5.77H48.94V26.06h1.78Z"/><path class="cls-1" d="M55.85,28a2,2,0,1,1,3.9,0v4.24a2,2,0,1,1-3.9,0Zm1.28,4.32c0,.58.26.8.67.8s.66-.22.66-.8V27.93c0-.58-.25-.8-.66-.8s-.67.22-.67.8Z"/></svg>