<svg width="352" height="132" viewBox="0 0 352 132" fill="none" xmlns="http://www.w3.org/2000/svg">
<g clip-path="url(#clip0)">
<path d="M321.703 53.6903L310.47 64.9771L312.549 67.0463L323.782 55.7595L321.703 53.6903Z" fill="#494949"/>
<path d="M336.619 54.1867L314.627 76.2851L316.706 78.3543L338.698 56.2559L336.619 54.1867Z" fill="#494949"/>
<path d="M307.6 34.6569L305.521 36.7266L306.645 37.855L308.724 35.7852L307.6 34.6569Z" fill="#494949"/>
<path d="M301.577 28.5387L299.497 30.6075L300.621 31.7364L302.7 29.6675L301.577 28.5387Z" fill="#494949"/>
<path d="M300.627 34.6484L299.504 35.7771L301.583 37.8463L302.706 36.7176L300.627 34.6484Z" fill="#494949"/>
<path d="M306.639 28.54L305.516 29.6686L307.595 31.7378L308.718 30.6091L306.639 28.54Z" fill="#494949"/>
<path d="M294.423 65.7067C297.189 65.7067 299.368 63.4438 299.451 60.6781C299.451 57.9124 297.189 55.6495 294.423 55.6495C291.657 55.6495 289.394 57.9124 289.394 60.6781C289.394 63.4438 291.657 65.7067 294.423 65.7067ZM294.423 58.6667C295.512 58.6667 296.434 59.5886 296.518 60.7619C296.518 61.9353 295.596 62.8572 294.423 62.8572C293.25 62.8572 292.328 61.9353 292.328 60.7619C292.328 59.5886 293.25 58.6667 294.423 58.6667Z" fill="#494949"/>
<path d="M44.2307 47.8296L32.7632 59.3557L34.8426 61.4245L46.3101 49.8985L44.2307 47.8296Z" fill="#494949"/>
<path d="M39.9651 36.7212L17.9758 58.8227L20.0553 60.8916L42.0445 38.7901L39.9651 36.7212Z" fill="#494949"/>
<path d="M51.3752 75.1771C54.1409 75.1771 56.4038 72.9143 56.4038 70.1486C56.4038 67.3829 54.1409 65.12 51.3752 65.12C48.6095 65.12 46.3467 67.3829 46.3467 70.1486C46.3467 72.9143 48.6095 75.1771 51.3752 75.1771ZM51.3752 68.0533C52.5486 68.0533 53.4705 68.9752 53.4705 70.1486C53.4705 71.3219 52.5486 72.2438 51.3752 72.2438C50.2019 72.2438 49.28 71.3219 49.28 70.1486C49.28 68.9752 50.2019 68.0533 51.3752 68.0533Z" fill="#494949"/>
<path d="M32.099 94.2857H0V97.219H32.099V94.2857Z" fill="#494949"/>
<path d="M352 94.2857H319.901V97.219H352V94.2857Z" fill="#494949"/>
<path d="M210.53 72.4952C206.255 70.819 188.488 64.0305 184.13 62.4381V54.7276H183.543C186.979 51.6266 189.326 47.6038 190.583 42.659C192.259 42.5752 194.354 41.8209 195.528 38.8038C196.45 36.2895 197.036 33.6076 197.12 30.7581C197.204 28.9981 196.785 27.6571 195.863 26.6514C195.276 25.9809 194.354 25.4781 193.265 25.3105V25.2266C194.522 17.6 192.51 11.3981 187.23 6.70474C182.621 2.59807 177.006 0.419023 170.05 -2.46758e-05H169.966H169.798H169.63C168.206 -2.46758e-05 164.602 -0.0838343 163.345 3.60378C162.423 3.60378 161.501 3.68759 160.411 3.85521C154.964 4.69331 151.36 7.54283 149.6 12.4876C148.091 16.6781 148.259 20.9524 148.51 25.3105C146.415 25.7295 145.074 27.2381 144.907 29.5009C144.655 32.8533 145.326 36.0381 146.834 39.139C147.84 41.0666 149.432 42.24 151.36 42.4914C152.533 47.52 154.964 51.6266 158.735 54.8952V62.5219C153.874 64.3657 131.665 72.7466 127.307 74.4228L126.552 74.6743L114.232 130.156L117.082 130.827L129.15 76.8533C135.52 74.4228 160.495 64.9524 160.747 64.8686L161.669 64.5333V57.0743C162.842 57.8285 164.099 58.5828 165.524 59.2533C167.451 60.1752 169.295 60.5943 171.055 60.5943C172.312 60.5943 173.57 60.4266 174.659 60.0076C177.09 59.0857 179.269 57.9124 181.196 56.5714V64.5333L182.118 64.8686C182.286 64.9524 204.495 73.3333 209.44 75.2609L210.53 72.4952ZM173.653 57.2419C171.474 57.9962 169.211 57.8285 166.697 56.6552C159.741 53.3028 155.634 48.4419 154.126 41.7371C153.79 40.3962 153.036 39.7257 151.779 39.6419C150.773 39.5581 150.019 38.9714 149.432 37.8819C148.175 35.2838 147.672 32.5181 147.84 29.6686C147.924 28.579 148.427 28.2438 149.181 28.16C151.611 27.7409 151.528 25.8971 151.444 25.1428C151.192 20.9524 151.109 17.0971 152.366 13.4095C153.79 9.47045 156.472 7.37521 160.914 6.70474C162.004 6.53712 162.842 6.45331 163.68 6.45331C163.68 6.45331 163.764 6.45331 163.512 6.62093C165.272 6.70474 165.691 5.61521 165.859 5.02855C166.194 3.43617 167.032 2.93331 169.379 3.01712C169.463 3.01712 169.547 3.01712 169.63 3.01712H169.714C175.916 3.35236 180.945 5.36378 185.051 8.96759C189.577 12.9905 191.253 18.1866 190.164 24.8076L190.08 25.1428C190.08 25.2266 189.996 25.3943 189.996 25.5619C189.829 26.3162 189.996 26.9028 190.331 27.4057C190.583 27.7409 191.086 28.16 192.008 28.16C192.762 28.16 193.265 28.3276 193.6 28.6628C194.103 29.1657 194.103 30.0038 194.103 30.6743C194.019 33.2724 193.516 35.619 192.678 37.7981C192.008 39.5581 191.086 39.8095 190.164 39.7257C188.236 39.5581 187.901 41.2343 187.733 41.7371C185.89 49.28 181.28 54.3924 173.653 57.2419Z" fill="#494949"/>
<path d="M178.347 78.9486L173.15 74.2552C171.642 72.7467 169.714 73.2495 168.876 73.6686L163.01 79.0324L165.691 87.0781L160.663 130.408L163.596 130.743L168.709 86.8267L166.446 79.9543L170.469 76.2667C170.72 76.1829 170.971 76.2667 171.223 76.5181L174.994 80.0381L172.731 86.9105L177.844 131.078L180.693 130.491L175.665 86.9943L178.347 78.9486Z" fill="#494949"/>
<path d="M213.714 86.9105C201.31 86.9105 191.17 97.0514 191.17 109.455C191.17 121.859 201.31 132 213.714 132C226.118 132 236.259 121.859 236.259 109.455C236.259 97.0514 226.118 86.9105 213.714 86.9105ZM213.714 129.067C202.903 129.067 194.103 120.267 194.103 109.455C194.103 98.6438 202.903 89.8438 213.714 89.8438C224.526 89.8438 233.326 98.6438 233.326 109.455C233.326 120.267 224.526 129.067 213.714 129.067Z" fill="#494949"/>
<path d="M110.545 44.8381C110.712 41.3181 110.796 37.8819 109.623 34.5295C108.198 30.4228 105.097 27.9924 100.571 27.3219C99.8171 27.1543 99.0629 27.0705 98.3924 27.0705C97.3029 24.0533 94.2857 24.1371 93.1124 24.1371H92.7771C87.0781 24.4724 82.3848 26.3162 78.6133 29.6686C74.2552 33.5238 72.579 38.5524 73.5848 44.7543C72.7467 45.0057 72.0762 45.3409 71.5733 45.9276C70.819 46.7657 70.4 47.939 70.4838 49.4476C70.5676 51.7943 71.0705 54.0571 71.8248 56.0686C72.8305 58.5828 74.5905 59.2533 75.8476 59.3371C76.8533 63.2762 78.781 66.4609 81.5467 68.9752H81.1276V75.2609C77.7752 77.2724 63.2762 85.6533 59.84 86.9943L60.9295 89.76C65.0362 88.1676 82.6362 77.7752 83.3905 77.3562L84.0609 76.9371V70.9867C85.4857 71.9086 87.1619 72.7467 88.9219 73.4171C89.9276 73.8362 90.9333 74.0038 92.0229 74.0038C93.5314 74.0038 95.04 73.6686 96.5486 72.9143C97.5543 72.4114 98.4762 71.9086 99.3981 71.3219V76.9371L100.069 77.3562C100.32 77.5238 106.27 81.2952 110.377 82.8876L111.383 80.1219C108.366 78.9486 104.008 76.2667 102.331 75.2609V69.1428C105.265 66.4609 107.276 63.1924 108.198 59.2533C109.79 59.0019 111.131 57.9962 111.886 56.4038C113.143 53.8895 113.646 51.2076 113.478 48.4419C113.394 46.5981 112.305 45.2571 110.545 44.8381ZM109.288 55.1467C108.785 56.2362 108.114 56.4038 107.611 56.4038C106.773 56.4038 105.768 56.8228 105.432 58.3314C104.259 63.6952 100.907 67.6343 95.3752 70.2324C93.3638 71.1543 91.6038 71.3219 89.9276 70.6514C83.8095 68.3886 80.1219 64.2819 78.6133 58.2476C78.3619 57.0743 77.6076 56.4038 76.5181 56.4038C76.4343 56.4038 76.4343 56.4038 76.5181 56.4876C75.9314 56.4876 75.2609 56.4038 74.7581 55.0628C74.0876 53.3028 73.6686 51.459 73.5848 49.3638C73.5848 48.6933 73.6686 48.1905 73.92 47.939C74.1714 47.7714 74.5067 47.6038 75.0095 47.6038C75.8476 47.52 76.2667 47.1848 76.5181 46.8495C76.6857 46.5143 76.9371 45.9276 76.7695 45.0895C76.6857 45.0057 76.6857 44.8381 76.6857 44.7543L76.6019 44.5028C75.68 39.2228 77.0209 35.0324 80.6248 31.8476C83.9771 28.9143 88 27.3219 93.0286 27.0705H93.28C95.2076 27.0705 95.6267 27.4895 95.8781 28.4952C95.9619 28.9143 96.381 30.0038 97.9733 30.0038C98.6438 30.0038 99.3143 30.0038 100.236 30.1714C103.756 30.6743 105.851 32.3505 106.941 35.4514C108.03 38.3848 107.947 41.4857 107.695 44.9219C107.611 46.4305 108.282 47.3524 109.79 47.6038C110.293 47.6876 110.545 47.8552 110.629 48.6095C110.712 50.8724 110.293 53.0514 109.288 55.1467Z" fill="#494949"/>
<path d="M98.8114 88.6705L94.1181 84.3962L93.8667 84.2286C93.1124 83.8095 91.4362 83.3905 90.0952 84.7314L85.7371 88.7543L88 95.4591L83.8933 130.743L86.8267 131.078L91.0171 94.9562L89.1733 89.5086L92.1905 86.7429C92.1905 86.7429 92.2743 86.6591 92.3581 86.6591L95.459 89.5086L93.6152 94.9562L97.8057 130.743L100.739 130.408L96.6324 95.2914L98.8114 88.6705Z" fill="#494949"/>
<path d="M288.975 86.3238C285.455 84.9828 268.358 77.0209 264.335 75.1771V68.9752H264C266.682 66.4609 268.61 63.1924 269.615 59.3371C270.872 59.2533 272.632 58.5828 273.638 56.0686C274.392 54.0571 274.895 51.7943 274.979 49.4476C275.063 47.939 274.644 46.7657 273.89 45.9276C273.387 45.3409 272.716 44.9219 271.878 44.7543C272.884 38.5524 271.208 33.5238 266.85 29.6686C262.994 26.2324 258.385 24.4724 252.686 24.1371H252.35C251.177 24.1371 248.16 24.0533 247.07 27.0705C246.4 27.1543 245.73 27.2381 244.891 27.3219C240.282 27.9924 237.265 30.4228 235.84 34.5295C234.667 37.8819 234.667 41.3181 234.918 44.8381C233.158 45.2571 232.069 46.5981 231.985 48.4419C231.817 51.2076 232.32 53.8895 233.577 56.4038C234.415 57.9962 235.672 59.0019 237.265 59.2533C238.27 63.1924 240.282 66.5448 243.215 69.2267V75.0933C240.785 76.0152 234.248 78.4457 230.979 79.7028L232.069 82.4686C236.008 80.8762 245.059 77.5238 245.227 77.44L246.149 77.1048V71.4057C246.987 71.9924 247.909 72.4952 248.914 72.9143C250.507 73.6686 252.015 74.0038 253.524 74.0038C254.613 74.0038 255.619 73.8362 256.541 73.4171C258.301 72.7467 259.977 71.9924 261.402 70.9867V76.9371L262.24 77.3562C263.078 77.7752 283.863 87.4133 287.886 89.0057L288.975 86.3238ZM255.451 70.6514C253.775 71.3219 252.015 71.1543 250.004 70.2324C244.472 67.6343 241.12 63.6952 239.947 58.3314C239.611 56.8228 238.606 56.4876 237.851 56.4038C237.432 56.4038 236.678 56.2362 236.175 55.1467C235.17 53.0514 234.75 50.8724 234.918 48.6095C234.918 47.8552 235.253 47.6876 235.756 47.6038C237.265 47.4362 237.935 46.5143 237.851 44.9219C237.684 41.4857 237.6 38.3848 238.606 35.4514C239.695 32.3505 241.79 30.6743 245.31 30.1714C246.149 30.0876 246.819 30.0038 247.49 30.0038C247.573 30.0038 247.573 30.0038 247.657 29.92C249.25 29.92 249.669 28.8305 249.752 28.4114C250.004 27.3219 250.339 26.9028 252.35 26.9867H252.602C257.63 27.3219 261.653 28.8305 264.922 31.7638C268.526 35.0324 269.867 39.139 268.945 44.419L268.861 44.6705C268.777 44.7543 268.777 44.9219 268.777 45.0057C268.526 45.8438 268.777 46.4305 269.029 46.7657C269.28 47.1009 269.699 47.52 270.537 47.52C271.04 47.52 271.459 47.6876 271.627 47.8552C271.878 48.1067 271.962 48.6095 271.962 49.28C271.794 51.3752 271.459 53.219 270.789 54.979C270.286 56.32 269.615 56.4038 269.029 56.4038C267.855 56.32 267.101 56.9067 266.766 58.2476C265.257 64.2819 261.57 68.3886 255.451 70.6514Z" fill="#494949"/>
<path d="M259.977 88.8381L255.619 84.8991C254.194 83.4743 252.518 83.8933 251.764 84.3124L246.819 88.8381L248.998 95.4591L244.891 130.575L247.825 130.91L252.015 95.1238L250.171 89.6762L253.272 86.8267C253.356 86.8267 253.44 86.9105 253.524 86.9943L256.457 89.6762L254.613 95.1238L258.72 131.078L261.905 130.827L257.798 95.5429L259.977 88.8381Z" fill="#494949"/>
<path d="M286.042 97.8057C276.655 97.8057 268.945 105.516 268.945 114.903C268.945 124.29 276.571 132 286.042 132C295.512 132 303.139 124.29 303.139 114.903C303.139 105.516 295.429 97.8057 286.042 97.8057ZM286.042 129.067C278.248 129.067 271.878 122.697 271.878 114.903C271.878 107.109 278.248 100.739 286.042 100.739C293.836 100.739 300.206 107.109 300.206 114.903C300.206 122.697 293.836 129.067 286.042 129.067Z" fill="#494949"/>
<path d="M61.0133 97.8057C51.6267 97.8057 43.9162 105.516 43.9162 114.903C43.9162 124.29 51.5429 132 61.0133 132C70.4 132 78.1105 124.29 78.1105 114.903C78.1105 105.516 70.4 97.8057 61.0133 97.8057ZM61.0133 129.067C53.2191 129.067 46.8495 122.697 46.8495 114.903C46.8495 107.109 53.2191 100.739 61.0133 100.739C68.8076 100.739 75.1771 107.109 75.1771 114.903C75.1771 122.697 68.8076 129.067 61.0133 129.067Z" fill="#494949"/>
<path d="M62.4381 106.187H59.5048V113.227H52.5486V116.16H59.5048V123.116H62.4381V116.16H69.4781V113.227H62.4381V106.187Z" fill="#29A643"/>
<path d="M287.467 106.187H284.533V113.227H277.577V116.16H284.533V123.116H287.467V116.16H294.507V113.227H287.467V106.187Z" fill="#29A643"/>
<path d="M215.977 97.9733H213.044V108.03H203.07V110.964H213.044V120.937H215.977V110.964H226.034V108.03H215.977V97.9733Z" fill="#29A643"/>
</g>
<defs>
<clipPath id="clip0">
<rect width="352" height="132" fill="white"/>
</clipPath>
</defs>
</svg>
