<?xml version="1.0" encoding="utf-8"?>
<!-- Generator: Adobe Illustrator 23.1.1, SVG Export Plug-In . SVG Version: 6.00 Build 0)  -->
<svg version="1.1" id="Layer_1" xmlns="http://www.w3.org/2000/svg" xmlns:xlink="http://www.w3.org/1999/xlink" x="0px" y="0px"
	 viewBox="0 0 211.9 39" style="enable-background:new 0 0 211.9 39;" xml:space="preserve">
<style type="text/css">
	.st0{fill:#FF0000;}
	.st1{fill:#FFFFFF;}
	.st2{fill:#D0D2D3;}
	.st3{fill:#58595B;}
</style>
<g>
	<g>
		<g>
			<polygon class="st1" points="82.8,8.6 78.8,0 65.2,0 73.6,17.3 			"/>
			<path class="st1" d="M115.1,0H90.8L57.5,39h13.2l8.7-10.4L84.3,39h22.8l3.1-17.4l2.8,9.6l8.3-10L115.1,0z M96.4,35.9l-8.1-17.2
				l14-16.2L96.4,35.9z"/>
			<polygon class="st1" points="135.8,0 113.6,33.7 124.7,33.7 133.2,20.5 129.9,39 141.2,39 148,0 			"/>
		</g>
		<g>
			<path class="st0" d="M17.5,1.4c-0.2,1.7-0.4,3.7-0.2,5.5c0.3,2.6,1.9,3.9,4,4.7c0.6,0.2,1.6,0.6,2.4,0.4c0.4-0.1,0.7-0.3,0.9-0.5
				c0.7-0.5,1.6-0.9,2.6-1c1.6-0.2,3.1,0.2,4.3,0.5c1.1,0.3,2.6,0.8,3.5,1.3c0.5,0.3,0.9,0.8,1.2,1.3c0.5,0.8,0.7,2.2,1.8,2.5
				c0.3-1.1,0.1-2.4,0.1-3.6c0-1.1,0.3-2.3,0.5-3.3c0.3-1.5,0.7-3.1,1.2-4.5c0.1-0.2,0.3-1.4,0.7-1.2c0.2,0.1,0.1,0.5,0.1,0.8
				c0,1-0.1,1.7-0.2,2.6c-0.2,2.3-0.2,5,0.2,7c0.2,1.1,0.5,2.1,0.4,3.4c0,0.3-0.2,0.7-0.3,1c-0.1,0.3,0,0.5-0.1,0.8
				c-0.1,0.3-0.4,0.8-0.6,1.1c-0.1,0.1-0.2,0.3-0.3,0.6c-0.1,0.2-0.3,0.3-0.3,0.6c0,0.4,0.7,1.1,1.1,1.2c1.6,0.5,3.4,0.7,4.3,1.6
				c0.6,0.6,1,1.3,1.1,2.3c0.1,0.9-0.2,1.6-0.5,2.3c-0.2,0.5-0.4,1.8-0.8,2c-0.3,0.2-0.7,0.1-1.1,0.3c-0.1,0.5-0.3,0.8-0.4,1.3
				c-0.3,0.4-0.7,0.6-1,1c0.1,0.8-0.4,1.1-1.1,1.1c-2.1,1.7-6.2,0.6-8-0.6c-0.9,0.6-1.9,1.1-1.7,2.8c0.8,0.4,1.3,0.9,2.3,1.2
				c1.2,0.4,2.7,0.2,3.4,0.9c0.1,0.1,0.1,0.1,0.2,0.2h6l17-19.7L50.8,0H17.6C17.6,0.5,17.6,1,17.5,1.4z"/>
			<path class="st0" d="M1.9,38.7c1.1-1.1,2.6-1.9,4.1-2.6c1.2-0.5,2.4-1,3.3-1.7c0.4-0.3,0.7-0.7,1.2-0.8c0.9-0.1,1.9,0.3,2.6,0.4
				c1.9,0.4,3.4-0.6,4.4-1.6c0.5-0.5,1.1-1,1.4-1.7c0.4-0.9,0.2-2,0.2-3.1c0-2.2,0.8-3.8,0.9-5.9c0-1.1-0.2-2.1-0.1-3.2
				c-1.1-0.6-2.4-1.1-3.3-2.1c-0.9-1-1.9-2.8-1.6-4.3c-0.7-1-1.2-2.4-1.3-4c0-1.6,0.5-2.9,0.9-4.4c0.4-1.3,0.7-2.6,1.1-3.8H8.4
				L0,38.9h1.8C1.8,38.8,1.9,38.8,1.9,38.7z"/>
		</g>
	</g>
	<g>
		<path class="st0" d="M211.9,11.3h-30.9c-1,1.3-1.7,2.8-1.9,4.3c-0.3,1.6-0.1,3.1,0.4,4.3h30.9l-3.6-4.3L211.9,11.3z"/>
		<path class="st0" d="M172,19.9c-0.2-1.4-0.1-2.8,0.1-4.3c0.3-1.5,0.7-3,1.4-4.3h-9.4l-1.5,8.7H172z"/>
		<polygon class="st0" points="171.1,11.3 164.2,11.3 162.6,19.9 169.6,19.9 		"/>
		<path class="st0" d="M203.6,11.3h-7.5c0.5,1.3,0.7,2.8,0.4,4.3c-0.3,1.6-1,3.1-1.9,4.3h7.5c0.6-1.4,1.1-2.8,1.4-4.3
			C203.7,14.1,203.7,12.6,203.6,11.3z"/>
		<g>
			<path class="st1" d="M185.3,16.2l-0.3,1.7h-1.2l0.3-1.7l-1.2-2.9h1.3l0.6,1.9l1.2-1.9h1.3L185.3,16.2z"/>
			<path class="st1" d="M187.8,13.3h3.6l-0.2,1h-2.4l-0.1,0.8h2.2l-0.2,0.9h-2.2l-0.2,0.9h2.5l-0.2,1H187L187.8,13.3z"/>
			<path class="st1" d="M193.4,13.3h1.2l0.9,4.6h-1.2l-0.1-0.8h-1.6l-0.4,0.8h-1.2L193.4,13.3z M193,16.2h1l-0.2-1.6h0L193,16.2z"/>
			<path class="st1" d="M196.7,13.3h2.3c0.8,0,1.5,0.4,1.4,1.3c-0.1,0.5-0.4,1-0.9,1.1l0,0c0.5,0.1,0.5,0.7,0.5,1.1
				c0,0.2-0.1,0.8,0,1h-1.2c-0.1-0.2,0-0.6,0-0.7c0-0.5,0.1-0.9-0.5-0.9h-0.9l-0.3,1.7h-1.2L196.7,13.3z M197.5,15.3h1
				c0.4,0,0.6-0.2,0.6-0.5c0.1-0.3-0.2-0.5-0.5-0.5h-0.9L197.5,15.3z"/>
			<path class="st1" d="M201.7,16.3c-0.1,0.5,0.2,0.7,0.7,0.7c0.4,0,0.8-0.1,0.8-0.5c0.1-0.4-0.6-0.5-1.2-0.7
				c-0.6-0.2-1.3-0.5-1.1-1.3c0.2-1,1.2-1.4,2.1-1.4c0.9,0,1.7,0.4,1.6,1.5h-1.2c0.1-0.4-0.3-0.5-0.6-0.5c-0.3,0-0.6,0.1-0.6,0.4
				c-0.1,0.4,0.6,0.4,1.2,0.6c0.6,0.2,1.2,0.5,1.1,1.3c-0.2,1.2-1.3,1.5-2.3,1.5c-1,0-1.9-0.5-1.7-1.6H201.7z"/>
		</g>
		<g>
			<polygon class="st1" points="160.7,30.8 167.7,30.8 169.6,19.9 162.6,19.9 			"/>
			<path class="st1" d="M186.3,24.3c-3.2,0-5.7-1.7-6.7-4.3c-0.5-1.3-0.7-2.8-0.4-4.3c0.3-1.6,1-3.1,1.9-4.3c2-2.6,5.1-4.3,8.2-4.3
				c3.2,0,5.7,1.7,6.7,4.3h7.5c-0.7-6.5-5.9-11.3-13-11.3c-7.1,0-13.9,4.8-17,11.3c-0.6,1.4-1.1,2.8-1.4,4.3c-0.3,1.5-0.3,3-0.1,4.3
				c0.7,6.5,5.9,11.3,13,11.3c7.1,0,13.9-4.8,17-11.3h-7.5C192.6,22.5,189.5,24.3,186.3,24.3z"/>
			<polygon class="st1" points="165.5,3.9 164.2,11.3 171.1,11.3 173,0.4 169.5,0.4 			"/>
		</g>
		<g>
			<path class="st1" d="M162.2,34.7h1l0.7,4.2H163l-0.1-0.9h-1.6l-0.5,0.9h-1L162.2,34.7z M161.6,37.3h1.1l-0.2-1.7h0L161.6,37.3z"
				/>
			<path class="st1" d="M165.2,34.7h1l1.2,3h0l0.6-3h0.9l-0.9,4.2H167l-1.2-3h0l-0.6,3h-0.9L165.2,34.7z"/>
			<path class="st1" d="M169.9,34.7h1l1.2,3h0l0.6-3h0.9l-0.9,4.2h-0.9l-1.2-3h0l-0.6,3H169L169.9,34.7z"/>
			<path class="st1" d="M174.5,34.7h0.9l-0.9,4.2h-0.9L174.5,34.7z"/>
			<path class="st1" d="M177.6,38.9h-1.1l-0.5-4.2h0.9l0.3,3.2h0l1.6-3.2h1L177.6,38.9z"/>
			<path class="st1" d="M180.3,34.7h3.2l-0.2,0.8h-2.3l-0.2,0.9h2.1l-0.2,0.7h-2.1l-0.2,1h2.3l-0.2,0.8h-3.3L180.3,34.7z"/>
			<path class="st1" d="M184.4,34.7h2c0.8,0,1.3,0.3,1.3,1.1c0,0.6-0.4,1.1-1,1.1v0c0.4,0.1,0.4,0.4,0.4,0.7c0,0.2,0,0.5,0,0.7
				c0,0.2,0,0.4,0.1,0.5h-0.9c0-0.1,0-0.2,0-0.3c0-0.3,0-0.6,0-0.9c0-0.4-0.2-0.5-0.6-0.5h-0.9l-0.4,1.7h-0.9L184.4,34.7z
				 M184.9,36.6h0.9c0.5,0,1-0.2,1-0.7c0-0.5-0.3-0.5-0.7-0.5h-0.9L184.9,36.6z"/>
			<path class="st1" d="M188.9,37.5c0,0.6,0.4,0.8,0.9,0.8c0.4,0,0.8-0.2,0.8-0.6c0-0.4-0.5-0.5-1.1-0.7c-0.5-0.2-1.1-0.4-1.1-1.1
				c0-0.9,0.9-1.3,1.7-1.3c0.9,0,1.6,0.4,1.6,1.4h-0.9c0-0.5-0.3-0.6-0.8-0.6c-0.4,0-0.7,0.1-0.7,0.5c0,0.4,0.7,0.5,1,0.6
				c0.7,0.2,1.1,0.4,1.1,1.2c0,1-0.9,1.4-1.7,1.4c-1.2,0-1.8-0.5-1.8-1.5H188.9z"/>
			<path class="st1" d="M193.9,34.7h1l0.7,4.2h-0.9l-0.1-0.9H193l-0.5,0.9h-1L193.9,34.7z M193.3,37.3h1.1l-0.2-1.7h0L193.3,37.3z"
				/>
			<path class="st1" d="M197,34.7h2c0.8,0,1.3,0.3,1.3,1.1c0,0.6-0.4,1.1-1,1.1v0c0.4,0.1,0.4,0.4,0.4,0.7c0,0.2,0,0.5,0,0.7
				c0,0.2,0,0.4,0.1,0.5h-0.9c0-0.1,0-0.2,0-0.3c0-0.3,0-0.6,0-0.9c0-0.4-0.2-0.5-0.6-0.5h-0.9l-0.4,1.7h-0.9L197,34.7z M197.5,36.6
				h0.9c0.5,0,1-0.2,1-0.7c0-0.5-0.3-0.5-0.7-0.5h-0.9L197.5,36.6z"/>
			<path class="st1" d="M201.8,37.3l-1-2.6h1l0.6,1.8l1.3-1.8h1.1l-2.1,2.6l-0.3,1.6h-0.9L201.8,37.3z"/>
		</g>
	</g>
	<g>
		<polygon class="st3" points="150.7,39 150,39 156.9,0 157.6,0 		"/>
	</g>
</g>
</svg>
